<svg width="38" height="40" viewBox="0 0 38 40" fill="none" xmlns="http://www.w3.org/2000/svg">
<path d="M37 18.6667H31V3.33333C30.9977 1.49316 29.5068 0.00227865 27.6667 0H5.66666C4.19401 0 2.99999 1.19401 2.99999 2.66667V10.6667H0.999995C0.631831 10.6667 0.333328 10.9652 0.333328 11.3333V15.3333C0.333328 15.7015 0.631831 16 0.999995 16H2.99999V23.3333C2.99999 23.7015 3.2985 24 3.66666 24H6.99999V37.3333C6.99999 38.806 8.19401 40 9.66666 40H31.6667C33.1393 40 34.3333 38.806 34.3333 37.3333C34.3333 35.8607 33.1393 34.6667 31.6667 34.6667H31V24H37C37.3682 24 37.6667 23.7015 37.6667 23.3333V19.3333C37.6667 18.9652 37.3682 18.6667 37 18.6667ZM4.33333 2.66667C4.33333 1.93034 4.93033 1.33333 5.66666 1.33333C6.40299 1.33333 6.99999 1.93034 6.99999 2.66667V10.6667H4.33333V2.66667ZM1.66666 12H20.3333C20.6686 12 20.9518 11.7513 20.9948 11.4186L23.292 13.3333L20.9948 15.248C20.9518 14.9154 20.6686 14.6667 20.3333 14.6667H1.66666V12ZM4.33333 22.6667V16H6.99999V22.6667H4.33333ZM33 37.3333C33 38.0697 32.403 38.6667 31.6667 38.6667H11.9753C12.2106 38.2617 12.334 37.8018 12.3333 37.3333V36H31.6667C32.403 36 33 36.597 33 37.3333ZM29.6667 34.6667H11.6667C11.2985 34.6667 11 34.9652 11 35.3333V37.3333C11 38.0697 10.403 38.6667 9.66666 38.6667C8.93033 38.6667 8.33333 38.0697 8.33333 37.3333V16H19.6667V16.6667C19.6667 16.9255 19.8164 17.1611 20.0508 17.2708C20.2852 17.3805 20.5618 17.3447 20.7607 17.1787L24.7607 13.8454C24.9124 13.7188 25.0003 13.5312 25.0003 13.3333C25.0003 13.1354 24.9124 12.9479 24.7607 12.8213L20.7607 9.48796C20.5618 9.32194 20.2852 9.28613 20.0508 9.39583C19.8164 9.50553 19.6667 9.74121 19.6667 10V10.6667H8.33333V2.66667C8.33105 2.19727 8.20344 1.73698 7.96386 1.33333H27.6667C28.7712 1.33333 29.6667 2.22884 29.6667 3.33333V18.6667H18.3333V18C18.3333 17.7412 18.1836 17.5055 17.9492 17.3958C17.7148 17.2861 17.4381 17.3219 17.2393 17.488L13.2393 20.8213C13.0876 20.9479 12.9997 21.1354 12.9997 21.3333C12.9997 21.5312 13.0876 21.7188 13.2393 21.8454L17.2393 25.1787C17.4381 25.3447 17.7148 25.3805 17.9492 25.2708C18.1836 25.1611 18.3333 24.9255 18.3333 24.6667V24H29.6667V34.6667ZM36.3333 22.6667H17.6667C17.5807 22.667 17.4958 22.6842 17.4167 22.7174C17.3922 22.7301 17.3688 22.7445 17.346 22.7601C17.2982 22.7848 17.2532 22.8151 17.2126 22.8506C17.1911 22.8747 17.1712 22.9001 17.1533 22.9268C17.1208 22.9642 17.0931 23.0052 17.07 23.0495C17.057 23.0807 17.0469 23.1133 17.0394 23.1468C17.0254 23.1794 17.0143 23.2132 17.0065 23.248L14.708 21.3333L17.0052 19.4186C17.013 19.4535 17.0241 19.4873 17.0381 19.5199C17.0452 19.5534 17.0557 19.5859 17.0687 19.6172C17.0915 19.6615 17.1195 19.7025 17.152 19.7399C17.1699 19.7666 17.1898 19.792 17.2113 19.8161C17.2519 19.8516 17.2969 19.8818 17.3447 19.9066C17.3675 19.9222 17.3909 19.9365 17.4154 19.9492C17.4948 19.9827 17.5804 20 17.6667 20H36.3333V22.6667Z" fill="#00E016"/>
</svg>
