<svg width="40" height="40" viewBox="0 0 40 40" fill="none" xmlns="http://www.w3.org/2000/svg">
<path d="M20 0C14.1845 0 9.45312 4.73133 9.45312 10.5469C9.45312 16.3624 14.1845 21.0938 20 21.0938C25.8155 21.0938 30.5469 16.3624 30.5469 10.5469C30.5469 4.73133 25.8155 0 20 0ZM20 18.75C15.4768 18.75 11.7969 15.0701 11.7969 10.5469C11.7969 6.02367 15.4768 2.34375 20 2.34375C24.5232 2.34375 28.2031 6.02367 28.2031 10.5469C28.2031 15.0701 24.5232 18.75 20 18.75Z" fill="#2FC4B2"/>
<path d="M23.2682 23.5156H16.7317C11.3253 23.5156 5.98977 26.0118 2.42188 31.3639V40H37.5781V31.3639C34.0154 26.0195 28.6813 23.5156 23.2682 23.5156ZM35.2345 37.6562H35.2344H4.76562V32.081C7.50242 28.1784 11.9494 25.8594 16.7318 25.8594H23.2683C28.0507 25.8594 32.4976 28.1784 35.2345 32.081V37.6562Z" fill="#2FC4B2"/>
</svg>
